<svg xmlns="http://www.w3.org/2000/svg" viewBox="0 0 1125.72 894.18"><defs><style>.cls-1{fill:#5d2eff;}.cls-2{fill:#fff;}.cls-3{fill:#e41e25;}.cls-4{fill:#f1cd43;}</style></defs><g id="Final"><g id="regions"><g id="region-19"><polygon class="cls-1" points="444.24 540.24 457.75 556.53 570.72 556.53 571.54 373.52 444.24 372.42 444.24 540.24"/></g><g id="region-18"><path class="cls-1" d="M582.48,557a7.76,7.76,0,0,0,4.21-1.24l34.12-22a8.91,8.91,0,0,1,2.26-1l53-15.8a6.48,6.48,0,0,1,6.65,1.87l4.18,4.64a7.65,7.65,0,0,0,5.68,2.53H702V475.36a11.78,11.78,0,0,1,1.7-6.09l23.38-38.67a6.36,6.36,0,0,0,.92-3.29v-53.5L575,374l-.82,183Z" transform="translate(-0.45 -0.47)"/></g><g id="region-17"><path class="cls-1" d="M673,643.62V622.26A10.74,10.74,0,0,1,680.47,612l18.33-5.91a4.62,4.62,0,0,0,3.2-4.4V529h-9.43a10.66,10.66,0,0,1-7.91-3.52l-4.18-4.64a3.47,3.47,0,0,0-3.56-1l-53,15.81a5.77,5.77,0,0,0-1.49.69l-34.12,22a10.79,10.79,0,0,1-5.84,1.71H459.56l8.37,26a1.5,1.5,0,0,1-.43,1.57,53,53,0,0,1-1.05,13.47L575,604v39.58Z" transform="translate(-0.45 -0.47)"/></g><g id="region-16"><path class="cls-1" d="M344,414.45a13.55,13.55,0,0,0,3.12,8.64l94.57,114V372.86L344,372Z" transform="translate(-0.45 -0.47)"/></g><g id="region-15"><path class="cls-1" d="M441.69,238l-.3,0c-7.31-.53-11.67.9-16.29,2.41A39.91,39.91,0,0,1,411.5,243c-6.55,0-12.42-2-18.09-3.88-5-1.67-9.71-3.25-14.49-3.36a50.78,50.78,0,0,0-13.21,1.36,28.6,28.6,0,0,1-6.21.88c-4,0-11.94-1.32-15.5-1.95V369l97.69.85Z" transform="translate(-0.45 -0.47)"/></g><g id="region-14"><path class="cls-1" d="M587.52,297.36c1.05-.9,2.05-1.73,3-2.54,5.45-4.51,10.15-8.41,17.69-20.13,3.38-5.26,7.6-13.91,12.48-23.92l2.7-5.53c-8.82,0-40.13,0-58.24,1.42A62.5,62.5,0,0,0,539.53,254c-3.61,1.79-6.72,3.33-10.22,3.56-.39,0-.77,0-1.12,0-4,0-5.84-1.56-8-3.35A22.36,22.36,0,0,0,509.72,249c-7.21-1.74-16.33-1-24.39-.4-5.57.44-10.83.85-15,.43-4.84-.48-8.5-2.66-12.38-5s-7.76-4.61-13.28-5.61V369.88L572,371V318.32a15.81,15.81,0,0,1,2.34-8.26C575.92,307.46,582.22,301.91,587.52,297.36Z" transform="translate(-0.45 -0.47)"/></g><g id="region-13"><path class="cls-1" d="M791.45,587.12l85.55,1-1.86-179.6A13.27,13.27,0,0,0,872,400L850.5,375,731,373.83v53.48a9.37,9.37,0,0,1-1.35,4.84l-23.39,38.67a8.85,8.85,0,0,0-1.26,4.54V601.69a7.59,7.59,0,0,1-5.28,7.25l-18.32,5.91a7.76,7.76,0,0,0-5.4,7.41v21.36H791.45Z" transform="translate(-0.45 -0.47)"/></g><g id="region-12"><path class="cls-1" d="M876.58,374a32.52,32.52,0,0,1-7.91,1H854.45l19.78,23.08a16.32,16.32,0,0,1,3.91,10.41L880,588.12l171-1,0-219a62.07,62.07,0,0,0-7.53,17.31c-3.87,14.29-5.87,41.24-12.63,54.41s-24.15,22.9-36.45,14.65c-3.8-2.56-4.74-8.18-8.92-10.06-9.48-4.27-17.84,6.45-25,14-11.06-21.64-30.13-40.38-43-61-5.81-9.32-12.29-20-15.16-30Z" transform="translate(-0.45 -0.47)"/></g><g id="region-11"><path class="cls-1" d="M978.55,720.51a11.65,11.65,0,0,1,5.41-1.63l16-.81V706.52a8.37,8.37,0,0,1,1.52-4.81l5.39-7.69a9.52,9.52,0,0,1,7.7-4.06l36.33-.31,0-99.5-170.93,1L882,777.88Z" transform="translate(-0.45 -0.47)"/></g><g id="region-10"><path class="cls-1" d="M783.85,749.43l-38.48,18.88a11.64,11.64,0,0,0-6.54,10.25l-1.14,54.85H775.1a8.43,8.43,0,0,0,4.94-1.59l44.73-32.2a8.51,8.51,0,0,1,5-1.62H846.1a6.74,6.74,0,0,0,3.39-.92L879,779.65l-2-188.53-82.58-1v53.46h0l0,1.54-2.25,91.23A14.89,14.89,0,0,1,783.85,749.43Z" transform="translate(-0.45 -0.47)"/></g><g id="region-9"><path class="cls-1" d="M737.09,870.92a13.83,13.83,0,0,1-3-8.86l1.74-83.56a14.65,14.65,0,0,1,8.22-12.88l38.48-18.88a11.9,11.9,0,0,0,6.67-10.42l2.22-89.7H675.49a1.48,1.48,0,0,1-2,0H572V607l-106.52-2.91c-3.15,7.45-8.68,3.9-7,10.42,11,43,3,53-1,63.7a18.66,18.66,0,0,0,.35,12.94c3.35,8.86,22.44,18.72,30.69,23.36,32,18,52,47,74,87,5.59,10.17,9.43,29.35,18,37.19,8,7.31,18.3,11.4,28.37,15.33l87.4,34.13c15.82,6.18,36.32,11.41,47.73-1.18a30.51,30.51,0,0,0,3-4.11Z" transform="translate(-0.45 -0.47)"/></g><g id="region-8"><path class="cls-1" d="M1050.94,708.63v-16l-36.3.31a6.55,6.55,0,0,0-5.28,2.78l-5.38,7.69a5.35,5.35,0,0,0-1,3.09v14.41l-18.89.94a8.73,8.73,0,0,0-4,1.22L879,783.12h0l-28,16.55A9.61,9.61,0,0,1,846.1,801H829.78a5.5,5.5,0,0,0-3.25,1l-44.74,32.2a11.39,11.39,0,0,1-6.69,2.16H737.63l-.54,25.71a10.76,10.76,0,0,0,2.33,6.91l9.22,11.08a46.55,46.55,0,0,1,4.91-7.32c3.91-4.44,10.33-5.71,14.76-9.63,47.16-41.69,47.89-18.32,71.16-28.69,16.33-7.28,17.95-19.39,34-27,11.6-5.5,36-7,39-11,11.46-15.28,59.59-27.16,85.52-37.2,33.45-12.94,35.48-25.8,103.41-28,7.75-.25,16.36-2.37,20.8-8.72,2.72-3.88,3.19-8.8,3.32-13.58Z" transform="translate(-0.45 -0.47)"/></g><g id="region-7"><path class="cls-1" d="M1053.94,705.64l71.64.34c2-119.77-2-233.51.09-353.32-16.27,6.77-26.44,7.45-42.71,14.22a75.26,75.26,0,0,1,24.37-30.49c-22.26,4.12-41.34,12.05-53.33,27.51Z" transform="translate(-0.45 -0.47)"/></g><g id="region-6"><path class="cls-1" d="M309.36,227c-10.89-1-19.48.08-31.09,8.48-7.55,5.47-8.72,13.65-9.85,21.57-.58,4-1.13,7.88-2.55,11.07-6.81,15.32-18.25,23.7-34.87,25.54V367h11.93l2,44L341,412.92V235.49a120.2,120.2,0,0,1-17.55-5C318.59,228.82,314.75,227.48,309.36,227Z" transform="translate(-0.45 -0.47)"/></g><g id="region-5"><path class="cls-1" d="M456.16,559.24,344.81,425a16.58,16.58,0,0,1-3.74-9.08l-99-1.95-2-44H228V293.9c-.48,0-.95.08-1.44.1-18.81.75-32.93-2.92-45.39-6.15-4.19-1.09-8.15-2.12-12-2.88-9.05-1.81-10.57-.34-10.71-.17a.34.34,0,0,0,0,.35l.15.31,0,.31.34,55.11c1.08.19,2.16.39,3.23.65a19.4,19.4,0,0,1,13,16.38c2.06,21.69-14.63,46.82-8.34,69.21,10.19,36.33,58.44,33.44,78.58,65.35,5.94,9.41,14.76,17.66,25,22,5.85,2.48,17.69,3.31,24,4,12.71,1.39,21.48,13.49,32,20.77,30.51,21.14,81.57,29.16,118,36.23,7.31,1.42,2.6,9.2,10,10,5.62.61,6.28.75,10.42.91Z" transform="translate(-0.45 -0.47)"/></g><g id="region-4"><path class="cls-1" d="M677.94,138.93c-1.16,3.87-1.39,7.94-1.63,12.25-.37,6.67-.75,13.56-4.47,21-8.17,16.34-8.17,16.34-13.57,22.75-1.93,2.29-4.58,5.42-8.59,10.51-9.19,11.63-18.26,30.24-26.26,46.65-4.93,10.1-9.18,18.82-12.66,24.23-7.79,12.11-12.65,16.15-18.29,20.82-1,.8-2,1.62-3,2.51-2.73,2.34-11,9.46-12.58,12a12.87,12.87,0,0,0-1.9,6.7V371l153-.19h0L851.21,372h17.46a29.34,29.34,0,0,0,7.17-.89l25.74-6.59c-2.37-11,.28-21,13.89-27-34-3-42.91-22.09-51-43-4.67-12.06-5.59-25.34-7.62-38.11-5.26-33.11-6.12-44.83-28.38-69.89l24-5c-3.11-11.95-16.58-18.44-23-29,14.47-5.34,32.23-32.58,32-48-14.09,14.93-41.67,43.1-61,50s-27.18,3-37-15l12-13c-18.8-31-63.21-55-66-90.95C700.36,65.36,680.23,131.28,677.94,138.93Z" transform="translate(-0.45 -0.47)"/></g><g id="region-3"><path class="cls-1" d="M379.67,84.28a14.31,14.31,0,0,1-3.17,8.33l8.57,14.84a22.15,22.15,0,0,1,2.6,10.38V234.18c2.21.6,4.42,1.34,6.69,2.1,5.45,1.83,11.08,3.72,17.14,3.72a37,37,0,0,0,12.67-2.44c4.69-1.53,9.53-3.12,17.44-2.56s13.27,3.69,17.89,6.44c3.74,2.23,7,4.15,11.15,4.57,3.88.39,9,0,14.45-.44,8.27-.65,17.65-1.38,25.33.47a25.25,25.25,0,0,1,11.7,5.9c2.13,1.78,3.42,2.86,7,2.62,2.91-.2,5.63-1.55,9.09-3.25A65.8,65.8,0,0,1,565,243.67c19.42-1.51,53.85-1.45,59.94-1.43,7-14.16,14.63-28.79,22.43-38.67,4-5.12,6.71-8.28,8.66-10.59,5.17-6.13,5.17-6.13,13.18-22.15,3.44-6.88,3.8-13.45,4.16-19.81.25-4.5.48-8.74,1.74-13,2.36-7.85,23.46-76.93,32.22-105.61l-19.81,36c-.75-21.61-12.75-42.58-23.63-61.26-21.52-3-43.05,17.51-41,39.15,1.24,13.34,9.81,25.41,9.8,38.81s-18.07,26.49-26,15.7c-9.46-21.77-22.13-50.49-45.12-56.4-7.27-1.87-19.63,6.44-27,5-20.18-3.95-24.55-28.59-27-49-33.19,13.17-73.63,29.41-106.82,42.58-11.28,4.47-24.52,11.72-24.35,23.84C376.38,72.82,379.92,78.36,379.67,84.28Z" transform="translate(-0.45 -0.47)"/></g><g id="region-2"><path class="cls-1" d="M189.71,286.92c10.37,2.5,22.14,4.66,36.73,4.08,17.79-.71,29.79-8.6,36.69-24.11,1.25-2.81,1.77-6.43,2.32-10.27,1.16-8.14,2.48-17.37,11.07-23.58,12.31-8.91,21.8-10.06,33.12-9,5.75.52,9.94,2,14.8,3.68a116.19,116.19,0,0,0,18.34,5.09h0c.62.11,12,2.21,16.69,2.21a26.18,26.18,0,0,0,5.58-.81A52.94,52.94,0,0,1,379,232.76a31.71,31.71,0,0,1,5.68.68V117.83a19,19,0,0,0-2.23-8.92l-8.09-14c-4.84,4.38-12.23,6.91-19,7.58-11,1.1-23.12,0-32,6.65L319.48,96.7a4.11,4.11,0,0,0-6.24-.57l-5.72,15.49a6.32,6.32,0,0,1-3.93,3.81l-12.12,4c5-24-29-18-34-7-6.38,14-30.74,20.52-41,9-2.87-3.23-2.39-13.62-6-16-3.8-2.51-11.14-2.28-15.19-.19a41.75,41.75,0,0,1-5.29,2.25Z" transform="translate(-0.45 -0.47)"/></g><g id="region-1"><path class="cls-1" d="M155.63,286.06a3.36,3.36,0,0,1,.48-3.08c1.67-2.18,6-2.48,13.68-1,3.9.78,7.9,1.82,12.14,2.92l4.78,1.23L187,108.44c-17.71,4.75-36.61-1.76-47.52,0-26.62,4.37-41,10-60.19,23.25-22.2,15.33-43.36,31.13-51.81,56.75-11.09,33.64,11,70,22,102-16.14,2.36-47-4-49,5-1,8,33.39,8.65,53,6.78,12.2,17.3,25.74,35.17,28,56.22s-6,51-17,50c-8.44-.77-20-2-25,16-4,14.5-9.17,26,22,27,15,.46,18.12-16.11,22-30.67s4.13-30.07,9.88-44c9.92-24,37-39.28,62.65-36.36Z" transform="translate(-0.45 -0.47)"/></g></g></g><g id="HostpitalAndPowerPlant"><circle class="cls-2" cx="315.49" cy="312.96" r="20.06"/><polygon class="cls-3" points="329.55 309.55 318.96 309.55 318.96 298.9 312.02 298.9 312.02 309.55 301.37 309.55 301.37 316.5 312.02 316.5 312.02 327.08 318.96 327.08 318.96 316.5 329.55 316.5 329.55 309.55"/><circle class="cls-2" cx="274.94" cy="292.4" r="20.06"/><polygon class="cls-3" points="288.99 289 278.41 289 278.41 278.35 271.46 278.35 271.46 289 260.81 289 260.81 295.94 271.46 295.94 271.46 306.53 278.41 306.53 278.41 295.94 288.99 295.94 288.99 289"/><circle class="cls-2" cx="335.94" cy="437.4" r="20.06"/><polygon class="cls-3" points="349.99 434 339.41 434 339.41 423.35 332.46 423.35 332.46 434 321.81 434 321.81 440.94 332.46 440.94 332.46 451.53 339.41 451.53 339.41 440.94 349.99 440.94 349.99 434"/><circle class="cls-2" cx="421.94" cy="380.4" r="20.06"/><polygon class="cls-3" points="435.99 377 425.41 377 425.41 366.35 418.46 366.35 418.46 377 407.81 377 407.81 383.94 418.46 383.94 418.46 394.53 425.41 394.53 425.41 383.94 435.99 383.94 435.99 377"/><circle class="cls-2" cx="97.94" cy="182.4" r="20.06"/><polygon class="cls-3" points="111.99 179 101.41 179 101.41 168.34 94.46 168.34 94.46 179 83.81 179 83.81 185.94 94.46 185.94 94.46 196.53 101.41 196.53 101.41 185.94 111.99 185.94 111.99 179"/><circle class="cls-2" cx="642.94" cy="745.4" r="20.06"/><polygon class="cls-3" points="656.99 742 646.41 742 646.41 731.35 639.46 731.35 639.46 742 628.81 742 628.81 748.94 639.46 748.94 639.46 759.53 646.41 759.53 646.41 748.94 656.99 748.94 656.99 742"/><circle class="cls-2" cx="976.94" cy="659.4" r="20.06"/><polygon class="cls-3" points="990.99 656 980.41 656 980.41 645.35 973.46 645.35 973.46 656 962.81 656 962.81 662.94 973.46 662.94 973.46 673.53 980.41 673.53 980.41 662.94 990.99 662.94 990.99 656"/><circle class="cls-2" cx="528.94" cy="176.4" r="20.06"/><polygon class="cls-3" points="542.99 173 532.41 173 532.41 162.34 525.46 162.34 525.46 173 514.81 173 514.81 179.94 525.46 179.94 525.46 190.53 532.41 190.53 532.41 179.94 542.99 179.94 542.99 173"/><circle cx="819.59" cy="256.53" r="21.96"/><circle class="cls-4" cx="819.59" cy="256.53" r="3.67"/><path id="bld" class="cls-4" d="M825.55,257a5.51,5.51,0,0,0-2.75-4.77l6.43-11.14A18.39,18.39,0,0,1,838.42,257Z" transform="translate(-0.45 -0.47)"/><path id="bld-2" data-name="bld" class="cls-4" d="M817.29,261.77a5.48,5.48,0,0,0,5.51,0l6.43,11.14a18.38,18.38,0,0,1-18.37,0Z" transform="translate(-0.45 -0.47)"/><path id="bld-3" data-name="bld" class="cls-4" d="M817.29,252.23a5.49,5.49,0,0,0-2.76,4.77H801.67a18.37,18.37,0,0,1,9.19-15.91Z" transform="translate(-0.45 -0.47)"/></g></svg>